<?xml version="1.0" encoding="UTF-8" standalone="no"?>
<!-- Created with Inkscape (http://www.inkscape.org/) -->

<svg
   xmlns:dc="http://purl.org/dc/elements/1.1/"
   xmlns:cc="http://creativecommons.org/ns#"
   xmlns:rdf="http://www.w3.org/1999/02/22-rdf-syntax-ns#"
   xmlns:svg="http://www.w3.org/2000/svg"
   xmlns="http://www.w3.org/2000/svg"
   xmlns:sodipodi="http://sodipodi.sourceforge.net/DTD/sodipodi-0.dtd"
   xmlns:inkscape="http://www.inkscape.org/namespaces/inkscape"
   width="86.137718"
   height="128"
   id="svg3166"
   version="1.1"
   inkscape:version="0.48.0 r9654"
   sodipodi:docname="admin.svg"
   inkscape:export-filename="/home/ian/Dropbox/Essays/Ocp/development/icons/admin.png"
   inkscape:export-xdpi="12.65625"
   inkscape:export-ydpi="12.65625">
  <defs
     id="defs3168" />
  <sodipodi:namedview
     id="base"
     pagecolor="#ffffff"
     bordercolor="#666666"
     borderopacity="1.0"
     inkscape:pageopacity="0.0"
     inkscape:pageshadow="2"
     inkscape:zoom="4.265625"
     inkscape:cx="51.991134"
     inkscape:cy="64"
     inkscape:document-units="px"
     inkscape:current-layer="layer1"
     showgrid="false"
     fit-margin-top="0"
     fit-margin-left="0"
     fit-margin-right="0"
     fit-margin-bottom="0"
     inkscape:window-width="1388"
     inkscape:window-height="851"
     inkscape:window-x="52"
     inkscape:window-y="24"
     inkscape:window-maximized="1" />
  <metadata
     id="metadata3171">
    <rdf:RDF>
      <cc:Work
         rdf:about="">
        <dc:format>image/svg+xml</dc:format>
        <dc:type
           rdf:resource="http://purl.org/dc/dcmitype/StillImage" />
        <dc:title />
      </cc:Work>
    </rdf:RDF>
  </metadata>
  <g
     inkscape:label="Layer 1"
     inkscape:groupmode="layer"
     id="layer1"
     transform="translate(-436.38209,-273.34373)">
    <path
       style="fill:#e4dfc8;fill-opacity:1;stroke:none"
       d="m 442.47392,281.46401 c 0,0 -8.87989,17.76887 -5.19757,29.73899 4.07403,13.24341 21.8298,20.19628 21.8298,20.19628 0,0 0.7081,6.89924 2.52453,53.90623 2.94248,10.47194 5.14735,15.67231 17.82025,16.03822 12.6728,-0.36657 14.72916,-5.56628 17.67174,-16.03822 1.81643,-47.00699 2.67303,-53.90623 2.67303,-53.90623 0,0 18.11446,-6.8478 21.8298,-20.19628 3.68242,-13.2302 -5.19757,-29.73899 -5.19757,-29.73899 l -18.85976,-8.12028 2.07903,24.64259 -20.19627,12.47417 -20.34478,-12.47417 2.22753,-24.64259 z m 37.12551,90.99826 c 5.42426,0 9.75434,4.72212 9.75434,10.31174 0,5.58962 -4.33008,10.03304 -9.75434,10.03304 -5.42426,0 -9.75435,-4.44342 -9.75435,-10.03304 0,-5.58962 4.33009,-10.31174 9.75435,-10.31174 z"
       id="path3151"
       inkscape:connector-curvature="0"
       sodipodi:nodetypes="cscccccscccccccsssss" />
  </g>
</svg>
