<?xml version="1.0" encoding="UTF-8" standalone="no"?>
<!-- Created with Inkscape (http://www.inkscape.org/) -->

<svg
   xmlns:dc="http://purl.org/dc/elements/1.1/"
   xmlns:cc="http://creativecommons.org/ns#"
   xmlns:rdf="http://www.w3.org/1999/02/22-rdf-syntax-ns#"
   xmlns:svg="http://www.w3.org/2000/svg"
   xmlns="http://www.w3.org/2000/svg"
   xmlns:sodipodi="http://sodipodi.sourceforge.net/DTD/sodipodi-0.dtd"
   xmlns:inkscape="http://www.inkscape.org/namespaces/inkscape"
   width="104.43752"
   height="128.00278"
   id="svg2"
   version="1.1"
   inkscape:version="0.48.0 r9654"
   sodipodi:docname="biblio.svg"
   inkscape:export-filename="/home/ian/Dropbox/Essays/Ocp/development/icons/biblio.png"
   inkscape:export-xdpi="12.655975"
   inkscape:export-ydpi="12.655975">
  <defs
     id="defs4" />
  <sodipodi:namedview
     id="base"
     pagecolor="#ffffff"
     bordercolor="#666666"
     borderopacity="1.0"
     inkscape:pageopacity="0.0"
     inkscape:pageshadow="2"
     inkscape:zoom="4.3202188"
     inkscape:cx="37.012807"
     inkscape:cy="64.001389"
     inkscape:document-units="px"
     inkscape:current-layer="layer1"
     showgrid="false"
     showguides="true"
     inkscape:guide-bbox="true"
     inkscape:window-width="1388"
     inkscape:window-height="851"
     inkscape:window-x="52"
     inkscape:window-y="24"
     inkscape:window-maximized="1"
     fit-margin-top="0"
     fit-margin-left="0"
     fit-margin-right="0"
     fit-margin-bottom="0" />
  <metadata
     id="metadata7">
    <rdf:RDF>
      <cc:Work
         rdf:about="">
        <dc:format>image/svg+xml</dc:format>
        <dc:type
           rdf:resource="http://purl.org/dc/dcmitype/StillImage" />
        <dc:title></dc:title>
      </cc:Work>
    </rdf:RDF>
  </metadata>
  <g
     inkscape:label="Layer 1"
     inkscape:groupmode="layer"
     id="layer1"
     transform="translate(0.03127198,-924.15363)">
    <path
       style="fill:#e4dfc8;fill-opacity:1;stroke:#e4dfc8;stroke-width:4.57034396999999970;stroke-linecap:round;stroke-linejoin:round;stroke-miterlimit:4;stroke-opacity:1"
       d="m 33.386919,926.43265 0,123.14255 19.806106,0 0,-123.14255 z m -31.1443841,15.50077 0,107.92888 24.2553041,0 0,-107.92888 z m 58.1266151,6.88913 0,100.89625 10.620666,0 0,-100.89625 z m 17.366227,12.62991 0,88.40984 24.398823,0 0,-88.40984 z m 4.736241,70.03874 14.639294,0 c 1.734592,0 3.013978,1.2795 3.013978,3.0139 l 0,10.7643 c 0,1.7344 -1.279386,3.1575 -3.013978,3.1575 l -14.639294,0 c -1.734593,0 -3.013973,-1.4231 -3.013973,-3.1575 l 0,-10.7643 c 0,-1.7344 1.27938,-3.0139 3.013973,-3.0139 z m -75.2057954,0.4297 13.7781604,0 c 1.757419,0 3.157496,1.3997 3.157496,3.1574 l 0,10.9079 c 0,1.7577 -1.400077,3.1575 -3.157496,3.1575 l -13.7781604,0 c -1.7574181,0 -3.1574951,-1.3998 -3.1574951,-3.1575 l 0,-10.9079 c 0,-1.7577 1.400077,-3.1574 3.1574951,-3.1574 z m 30.5702944,0 10.190099,0 c 1.734593,0 3.013973,1.2795 3.013973,3.0139 l 0,10.7643 c 0,1.7349 -1.27938,3.1575 -3.013973,3.1575 l -10.190099,0 c -1.734595,0 -3.013973,-1.4226 -3.013973,-3.1575 l 0,-10.7643 c 0,-1.7344 1.279378,-3.0139 3.013973,-3.0139 z"
       id="path3752"
       inkscape:connector-curvature="0"
       sodipodi:nodetypes="ccccccccccccccccccccsssssssssssssssssssssssssss" />
  </g>
</svg>
