<?xml version="1.0" encoding="UTF-8" standalone="no"?>
<!-- Created with Inkscape (http://www.inkscape.org/) -->

<svg
   xmlns:dc="http://purl.org/dc/elements/1.1/"
   xmlns:cc="http://creativecommons.org/ns#"
   xmlns:rdf="http://www.w3.org/1999/02/22-rdf-syntax-ns#"
   xmlns:svg="http://www.w3.org/2000/svg"
   xmlns="http://www.w3.org/2000/svg"
   xmlns:sodipodi="http://sodipodi.sourceforge.net/DTD/sodipodi-0.dtd"
   xmlns:inkscape="http://www.inkscape.org/namespaces/inkscape"
   width="122.41611"
   height="128.06319"
   id="svg13629"
   version="1.1"
   inkscape:version="0.48.0 r9654"
   sodipodi:docname="book.svg"
   inkscape:export-filename="/home/ian/Dropbox/Essays/Ocp/development/icons/book.png"
   inkscape:export-xdpi="12.650005"
   inkscape:export-ydpi="12.650005">
  <defs
     id="defs13631" />
  <sodipodi:namedview
     id="base"
     pagecolor="#ffffff"
     bordercolor="#666666"
     borderopacity="1.0"
     inkscape:pageopacity="0.0"
     inkscape:pageshadow="2"
     inkscape:zoom="4.2635203"
     inkscape:cx="69.025012"
     inkscape:cy="64.031593"
     inkscape:document-units="px"
     inkscape:current-layer="layer1"
     showgrid="false"
     fit-margin-top="0"
     fit-margin-left="0"
     fit-margin-right="0"
     fit-margin-bottom="0"
     inkscape:window-width="1388"
     inkscape:window-height="851"
     inkscape:window-x="52"
     inkscape:window-y="24"
     inkscape:window-maximized="1" />
  <metadata
     id="metadata13634">
    <rdf:RDF>
      <cc:Work
         rdf:about="">
        <dc:format>image/svg+xml</dc:format>
        <dc:type
           rdf:resource="http://purl.org/dc/dcmitype/StillImage" />
        <dc:title></dc:title>
      </cc:Work>
    </rdf:RDF>
  </metadata>
  <g
     inkscape:label="Layer 1"
     inkscape:groupmode="layer"
     id="layer1"
     transform="translate(-287.58419,-291.35474)">
    <path
       id="path13626"
       style="fill:#e4dfc8;fill-opacity:1;stroke:#e4dfc8;stroke-width:6.31715583999999986;stroke-linecap:round;stroke-linejoin:round;stroke-miterlimit:4;stroke-opacity:1;stroke-dasharray:none"
       d="m 305.47855,390.484 c 0,0 1.29027,10.45279 31.89524,1.19067 30.60507,-9.26212 40.59065,-10.85547 51.06088,-11.25814 m -80.13732,-32.61862 c 0,0 1.69285,8.03649 32.70059,-0.41992 31.00784,-8.45669 38.17452,-10.4528 45.02033,-9.64736 m -79.33161,29.79982 c 0,0 5.31736,8.43952 29.07635,1.99629 23.75917,-6.44313 40.1878,-11.66081 50.25535,-10.85538 m -78.1822,-31.8737 c 0,0 0.54317,9.72586 29.07736,0.32133 28.53419,-9.40425 44.55594,-10.79247 50.06428,-9.05991 m 6.81678,97.84736 c -7.43024,0.16523 -19.08557,-2.38299 -16.70167,-11.24079 -2.20671,8.91212 9.07197,11.30616 16.65876,11.08697 7.58707,-0.21909 12.9814,-2.6176 13.06748,-6.21838 0.0913,-3.60069 -5.62711,-108.50017 -5.62711,-108.50017 0,0 -1.00371,-5.64783 -14.02837,-5.94881 -13.02457,-0.30125 -56.25455,13.31587 -68.48382,12.48113 -19.32758,-1.31921 -21.44711,-13.04547 -21.44711,-13.04547 l -6.49471,107.08684 c 0,0 4.45925,11.58039 16.86151,14.29823 12.40235,2.71774 69.07938,-14.06061 83.7036,-14.11967 14.62431,-0.0548 15.66645,6.04722 15.55107,8.2092 -0.11594,2.16207 -5.62958,5.74569 -13.05963,5.91092 z"
       inkscape:connector-curvature="0"
       inkscape:export-filename="/home/ian/Dropbox/Essays/Ocp/development/icons/book.png"
       inkscape:export-xdpi="90"
       inkscape:export-ydpi="90"
       sodipodi:nodetypes="csccsccsccscscccccsccsccs" />
  </g>
</svg>
