<?xml version="1.0" encoding="UTF-8" standalone="no"?>
<!-- Created with Inkscape (http://www.inkscape.org/) -->

<svg
   xmlns:dc="http://purl.org/dc/elements/1.1/"
   xmlns:cc="http://creativecommons.org/ns#"
   xmlns:rdf="http://www.w3.org/1999/02/22-rdf-syntax-ns#"
   xmlns:svg="http://www.w3.org/2000/svg"
   xmlns="http://www.w3.org/2000/svg"
   xmlns:sodipodi="http://sodipodi.sourceforge.net/DTD/sodipodi-0.dtd"
   xmlns:inkscape="http://www.inkscape.org/namespaces/inkscape"
   width="123.29665"
   height="128"
   id="svg13730"
   version="1.1"
   inkscape:version="0.48.0 r9654"
   sodipodi:docname="bug.svg"
   inkscape:export-filename="/home/ian/Dropbox/Essays/Ocp/development/icons/bug.png"
   inkscape:export-xdpi="12.65625"
   inkscape:export-ydpi="12.65625">
  <defs
     id="defs13732" />
  <sodipodi:namedview
     id="base"
     pagecolor="#ffffff"
     bordercolor="#666666"
     borderopacity="1.0"
     inkscape:pageopacity="0.0"
     inkscape:pageshadow="2"
     inkscape:zoom="6.7337782"
     inkscape:cx="9.0930893"
     inkscape:cy="99.568255"
     inkscape:document-units="px"
     inkscape:current-layer="layer1"
     showgrid="false"
     fit-margin-top="0"
     fit-margin-left="0"
     fit-margin-right="0"
     fit-margin-bottom="0"
     inkscape:window-width="1388"
     inkscape:window-height="851"
     inkscape:window-x="52"
     inkscape:window-y="24"
     inkscape:window-maximized="1">
    <inkscape:grid
       type="xygrid"
       id="grid3751"
       empspacing="5"
       visible="true"
       enabled="true"
       snapvisiblegridlinesonly="true" />
  </sodipodi:namedview>
  <metadata
     id="metadata13735">
    <rdf:RDF>
      <cc:Work
         rdf:about="">
        <dc:format>image/svg+xml</dc:format>
        <dc:type
           rdf:resource="http://purl.org/dc/dcmitype/StillImage" />
        <dc:title></dc:title>
      </cc:Work>
    </rdf:RDF>
  </metadata>
  <g
     inkscape:label="Layer 1"
     inkscape:groupmode="layer"
     id="layer1"
     transform="translate(-317.62311,-384.17163)">
    <path
       style="fill:#e4dfc8;fill-opacity:1;stroke:none"
       d="m 360.54659,384.17163 c -5.26343,0.17544 -13.18271,1.91911 -17.00657,9.93306 -4.71432,9.87983 0.16598,12.78976 7.0735,20.31755 1.26173,1.37503 1.20404,2.85484 1.20404,5.86951 4.64145,1.22881 16.89918,3.5076 27.84651,3.50873 10.94729,0.001 22.29066,-2.27897 26.93562,-3.50873 0,-3.01467 0.18205,-4.67328 1.3545,-5.86951 7.15096,-7.29684 11.63735,-10.43772 6.92303,-20.31755 -3.82385,-8.01395 -11.59262,-9.75744 -16.85605,-9.93306 0.005,7.33178 3.53015,15.34418 -1.05347,14.89957 -3.39766,-0.32959 -10.07488,-1.10151 -17.75906,-1.10151 -7.68421,0 -14.36144,0.77188 -17.75904,1.10151 -4.58368,0.4445 -0.90784,-7.56779 -0.90301,-14.89957 z m -36.87261,37.09774 c -1.99581,-0.16362 -2.99017,0.8698 -3.91304,3.1605 -2.46079,6.10856 -0.47288,7.56563 20.76909,17.60854 0,0 -0.63909,4.20117 -0.903,6.32102 -0.37357,2.99959 -1.05352,9.03002 -1.05352,9.03002 -23.3429,9.45868 -21.85784,10.37099 -20.01655,15.20057 1.84128,4.82956 0.94239,4.51136 20.31753,-2.70901 0,0 0.96737,6.05043 1.80601,9.03001 0.85349,3.03218 3.31102,8.87956 3.31102,8.87956 -15.22964,14.31897 -19.06759,16.50248 -15.20056,20.91956 3.86703,4.41707 5.30963,1.53405 20.76909,-9.93307 0,0 3.64346,4.36638 11.43805,8.72903 7.4098,4.14716 13.69553,4.66553 13.69553,4.66553 0,-63.31247 -2.71557,-66.68024 4.51501,-66.67173 7.41067,-0.0497 4.51501,2.94677 4.51501,66.67173 0,0 6.28569,-0.51837 13.69555,-4.66553 7.79454,-4.36265 11.58851,-8.72903 11.58851,-8.72903 15.45946,11.46712 16.75155,14.35014 20.61857,9.93307 3.86707,-4.41708 0.0283,-6.60059 -15.20056,-20.91956 0,0 2.45753,-5.84738 3.31103,-8.87956 0.83864,-2.97958 1.806,-9.03001 1.806,-9.03001 19.37514,7.22037 18.62672,7.53857 20.46805,2.70901 1.84128,-4.82958 3.17583,-5.74189 -20.16707,-15.20057 0,0 -0.6798,-6.03043 -1.05347,-9.03002 -0.26386,-2.11985 -0.75253,-6.32102 -0.75253,-6.32102 21.24177,-10.04291 23.07937,-11.49998 20.61857,-17.60854 -2.46089,-6.10849 -5.19032,-3.0795 -26.78907,6.622 0,0 -17.16583,4.15899 -32.65859,4.15899 -15.4928,0 -32.50811,-4.15899 -32.50811,-4.15899 -13.49921,-6.06343 -19.70025,-9.51021 -23.02655,-9.7825 z"
       id="path13575"
       inkscape:connector-curvature="0"
       sodipodi:nodetypes="cssczcsscccccsccccscscscccccccscscscccccccs"
       inkscape:export-xdpi="12.65625"
       inkscape:export-ydpi="12.65625" />
  </g>
</svg>
