<?xml version="1.0" encoding="UTF-8" standalone="no"?>
<!-- Created with Inkscape (http://www.inkscape.org/) -->

<svg
   xmlns:dc="http://purl.org/dc/elements/1.1/"
   xmlns:cc="http://creativecommons.org/ns#"
   xmlns:rdf="http://www.w3.org/1999/02/22-rdf-syntax-ns#"
   xmlns:svg="http://www.w3.org/2000/svg"
   xmlns="http://www.w3.org/2000/svg"
   xmlns:xlink="http://www.w3.org/1999/xlink"
   xmlns:sodipodi="http://sodipodi.sourceforge.net/DTD/sodipodi-0.dtd"
   xmlns:inkscape="http://www.inkscape.org/namespaces/inkscape"
   width="512"
   height="512"
   id="svg2"
   version="1.1"
   inkscape:version="0.48.0 r9654"
   sodipodi:docname="favicon.svg"
   inkscape:export-filename="/home/ian/Web_Pages/ocp/sites/all/themes/grammateus/images/favicon.png"
   inkscape:export-xdpi="90"
   inkscape:export-ydpi="90">
  <defs
     id="defs4">
    <linearGradient
       id="linearGradient3858">
      <stop
         style="stop-color:#fbf8e0;stop-opacity:1;"
         offset="0"
         id="stop3860" />
      <stop
         style="stop-color:#ffffff;stop-opacity:0;"
         offset="1"
         id="stop3862" />
    </linearGradient>
    <radialGradient
       inkscape:collect="always"
       xlink:href="#linearGradient3858"
       id="radialGradient3864"
       cx="174.8979"
       cy="223.8557"
       fx="174.8979"
       fy="223.8557"
       r="244.32858"
       gradientTransform="matrix(1,0,0,0.93736479,0,14.02125)"
       gradientUnits="userSpaceOnUse" />
  </defs>
  <sodipodi:namedview
     id="base"
     pagecolor="#ffffff"
     bordercolor="#666666"
     borderopacity="1.0"
     inkscape:pageopacity="0.0"
     inkscape:pageshadow="2"
     inkscape:zoom="0.5032858"
     inkscape:cx="4.0770109"
     inkscape:cy="186.1219"
     inkscape:document-units="px"
     inkscape:current-layer="layer1"
     showgrid="false"
     inkscape:window-width="1618"
     inkscape:window-height="1026"
     inkscape:window-x="62"
     inkscape:window-y="24"
     inkscape:window-maximized="1"
     showborder="false"
     inkscape:showpageshadow="false" />
  <metadata
     id="metadata7">
    <rdf:RDF>
      <cc:Work
         rdf:about="">
        <dc:format>image/svg+xml</dc:format>
        <dc:type
           rdf:resource="http://purl.org/dc/dcmitype/StillImage" />
        <dc:title></dc:title>
      </cc:Work>
    </rdf:RDF>
  </metadata>
  <g
     inkscape:label="Layer 1"
     inkscape:groupmode="layer"
     id="layer1"
     transform="translate(0,-540.36218)">
    <rect
       style="fill:#494738;fill-opacity:1;stroke:#ffffff;stroke-width:0.72794056;stroke-miterlimit:4;stroke-opacity:1;stroke-dasharray:none"
       id="rect2995"
       width="511.27206"
       height="511.92245"
       x="14.240192"
       y="526.81787"
       ry="61.595222"
       inkscape:export-filename="/home/ian/Web_Pages/ocp/sites/all/themes/grammateus/images/favicon_precomposed_72.png"
       inkscape:export-xdpi="12.66"
       inkscape:export-ydpi="12.66" />
    <path
       sodipodi:type="arc"
       style="opacity:0;fill:url(#radialGradient3864);fill-opacity:1;stroke:none"
       id="path3856"
       sodipodi:cx="174.8979"
       sodipodi:cy="223.8557"
       sodipodi:rx="243.98259"
       sodipodi:ry="228.67902"
       d="m 418.88049,223.8557 c 0,126.29593 -109.23472,228.67901 -243.98259,228.67901 -134.74786,0 -243.982586,-102.38308 -243.982586,-228.67901 0,-126.295936 109.234726,-228.6790185 243.982586,-228.6790185 134.74787,0 243.98259,102.3830825 243.98259,228.6790185 z"
       transform="matrix(1.4620161,0,0,1.4620161,7.5923822,223.56181)" />
    <g
       transform="matrix(1.602899,0,0,1.1288207,-122.017,518.96678)"
       style="font-size:144px;font-style:normal;font-variant:normal;font-weight:normal;font-stretch:normal;line-height:125%;letter-spacing:0px;word-spacing:0px;fill:#ffc100;fill-opacity:1;stroke:#ffc100;stroke-width:10.11909008;stroke-miterlimit:4;stroke-opacity:1;stroke-dasharray:none;font-family:Linux Biolinum O;-inkscape-font-specification:Linux Biolinum O"
       id="text2985"
       inkscape:export-filename="/home/ian/Web_Pages/ocp/sites/all/themes/grammateus/images/favicon_precomposed_72.png"
       inkscape:export-xdpi="12.66"
       inkscape:export-ydpi="12.66">
      <path
         d="m 312.47768,207.46317 c 3.38521,-17.57799 6.05447,-35.1561 8.00781,-52.73438 1.95291,0.65122 5.53364,1.30226 10.74219,1.95313 5.2081,0.521 8.85393,0.78142 10.9375,0.78125 5.46851,1.7e-4 12.10913,-1.17171 19.92187,-3.51563 l 2.14844,0.78125 c -1.43255,1.82309 -4.03671,4.94809 -7.8125,9.375 -3.64608,4.29704 -6.25024,7.55224 -7.8125,9.76563 -1.56274,2.21369 -3.38565,5.40379 -5.46875,9.57031 -1.95336,4.0366 -3.32054,8.33347 -4.10156,12.89062 l -12.10938,64.45313 c -1.56272,8.07297 -4.16688,15.95057 -7.8125,23.63281 -3.64604,7.55212 -8.26843,14.64847 -13.86719,21.28906 -5.59915,6.64064 -12.50018,12.43491 -20.70312,17.38282 -8.07309,4.8177 -16.86214,8.13801 -26.36719,9.96093 0.7811,6.77083 1.17173,15.62498 1.17188,26.5625 -1.5e-4,22.91662 -1.17203,40.36452 -3.51563,52.34375 l -30.46875,12.30469 -4.49219,-7.03125 c 8.0728,-20.96361 12.7603,-49.02348 14.0625,-84.17969 -8.85428,-0.13021 -16.86208,-1.23698 -24.02343,-3.32031 -7.03135,-2.08333 -13.15113,-4.8177 -18.35938,-8.20312 -5.0782,-3.51562 -9.57039,-7.9427 -13.47656,-13.28125 -3.90632,-5.33852 -7.09642,-10.87237 -9.57031,-16.60157 -2.47402,-5.85933 -4.55735,-12.63016 -6.25,-20.3125 -1.69276,-7.81243 -2.99485,-15.36451 -3.90625,-22.65625 -0.7813,-7.29158 -1.43234,-15.5598 -1.95313,-24.80468 l -1.95312,-32.42188 c -0.52088,-9.50506 -6.96619,-14.25766 -19.33594,-14.25781 -4.03648,1.5e-4 -8.91929,0.65119 -14.64844,1.95312 l -2.14844,-11.91406 c 10.67707,-2.08317 21.02862,-5.07796 31.05469,-8.98437 10.02599,-3.90608 17.05723,-5.8592 21.09375,-5.85938 4.94785,1.8e-4 7.42181,1.69288 7.42188,5.07813 l 4.10156,63.28125 c 0.78117,11.97926 1.75774,22.46102 2.92969,31.44531 1.302,8.98444 3.19002,17.9037 5.66406,26.75781 2.60408,8.85421 5.72908,16.21097 9.375,22.07031 3.77594,5.72919 8.59365,10.5469 14.45312,14.45313 5.85927,3.77605 12.63009,6.05469 20.3125,6.83594 1.04154,-27.0833 1.56238,-48.24214 1.5625,-63.47657 -1.2e-4,-43.35926 -1.82304,-111.91388 -5.46875,-205.66406 l 16.79688,0.78125 18.75,-4.101562 -7.22656,62.500002 c -3.64598,33.59393 -5.4689,81.70586 -5.46875,144.33594 -1.5e-4,18.09901 1.04152,39.97399 3.125,65.625 13.15088,-4.16666 23.37222,-12.82551 30.66406,-25.97657 7.42169,-13.15099 13.34616,-31.44525 17.77344,-54.88281 l 6.25,-33.98437"
         style="font-size:400px;fill:#ffc100;fill-opacity:1;stroke:#ffc100;stroke-width:10.11909008;stroke-miterlimit:4;stroke-opacity:1;stroke-dasharray:none"
         id="path2993"
         inkscape:connector-curvature="0" />
    </g>
  </g>
</svg>
