<?xml version="1.0" encoding="UTF-8" standalone="no"?>
<!-- Created with Inkscape (http://www.inkscape.org/) -->

<svg
   xmlns:dc="http://purl.org/dc/elements/1.1/"
   xmlns:cc="http://creativecommons.org/ns#"
   xmlns:rdf="http://www.w3.org/1999/02/22-rdf-syntax-ns#"
   xmlns:svg="http://www.w3.org/2000/svg"
   xmlns="http://www.w3.org/2000/svg"
   xmlns:sodipodi="http://sodipodi.sourceforge.net/DTD/sodipodi-0.dtd"
   xmlns:inkscape="http://www.inkscape.org/namespaces/inkscape"
   width="115.5"
   height="117.5625"
   id="svg2"
   version="1.1"
   inkscape:version="0.48.0 r9654"
   sodipodi:docname="help.svg"
   inkscape:export-filename="/home/ian/Dropbox/Essays/Ocp/development/icons/help.png"
   inkscape:export-xdpi="13.643744"
   inkscape:export-ydpi="13.643744">
  <defs
     id="defs4" />
  <sodipodi:namedview
     id="base"
     pagecolor="#ffffff"
     bordercolor="#666666"
     borderopacity="1.0"
     inkscape:pageopacity="0.0"
     inkscape:pageshadow="2"
     inkscape:zoom="3.9126575"
     inkscape:cx="59.066756"
     inkscape:cy="73.607831"
     inkscape:document-units="px"
     inkscape:current-layer="layer1"
     showgrid="false"
     fit-margin-top="0"
     fit-margin-left="0"
     fit-margin-right="0"
     fit-margin-bottom="0"
     inkscape:window-width="1388"
     inkscape:window-height="851"
     inkscape:window-x="52"
     inkscape:window-y="24"
     inkscape:window-maximized="1" />
  <metadata
     id="metadata7">
    <rdf:RDF>
      <cc:Work
         rdf:about="">
        <dc:format>image/svg+xml</dc:format>
        <dc:type
           rdf:resource="http://purl.org/dc/dcmitype/StillImage" />
        <dc:title></dc:title>
      </cc:Work>
    </rdf:RDF>
  </metadata>
  <g
     inkscape:label="Layer 1"
     inkscape:groupmode="layer"
     id="layer1"
     transform="translate(-2.579398,-933.62756)">
    <path
       style="fill:#e4dfc8;fill-opacity:1;stroke:#e4dfc8;stroke-opacity:1"
       d="m 32.71875,1.15625 c -31.6183525,0 -57.25,26.098284 -57.25,58.28125 0,32.182966 25.6316475,58.28125 57.25,58.28125 31.618352,0 57.25,-26.098284 57.25,-58.28125 0,-32.182966 -25.631648,-58.28125 -57.25,-58.28125 z m 0.375,15.1875 c 9.637569,9.1e-5 19.857422,4.80064 24.875,8.625 5.067135,3.783418 7.593683,8.394174 7.59375,13.78125 -6.7e-5,3.906699 -1.260537,7.512788 -3.84375,10.84375 -2.58334,3.289838 -7.597969,6.938769 -15,10.96875 -4.967887,2.714191 -7.422299,4.96045 -8.9375,8.0625 -1.515201,3.102141 -1.747948,7.82664 -4.09375,7.90625 -2.345802,0.07916 -2.550344,-8.21588 -0.78125,-12.8125 1.769096,-4.596529 2.77518,-6.016022 6.5625,-10.4375 3.78732,-4.421478 9.696472,-8.574556 9.96875,-15.9375 0.272279,-7.362944 -7.594027,-16.022521 -17.75,-15.96875 -9.020502,0.114092 -14.891625,6.228289 -15.625,10.375 1.075111,3.782144 4.145142,1.866898 4.21875,5.90625 -2.9e-5,2.015081 -0.842211,3.705495 -2.53125,5.0625 -1.639412,1.357096 -3.703599,2.03125 -6.1875,2.03125 -2.7820085,0 -5.1122334,-0.80241 -7,-2.40625 C 2.6747092,40.698968 1.7499901,38.548067 1.75,35.875 c -9.9e-6,-4.852372 1.3664575,-7.515238 6.3125,-11.5 4.946041,-3.984853 15.940067,-8.031159 25.03125,-8.03125 z M 33.25,86.53125 c 3.328417,0 6.133822,0.973508 8.46875,2.90625 2.33484,1.932833 3.531203,4.276026 3.53125,7.03125 -4.7e-5,2.755224 -1.19641,5.11979 -3.53125,7.09375 -2.334928,1.93274 -5.140333,2.90625 -8.46875,2.90625 -3.328487,0 -6.165143,-0.97351 -8.5,-2.90625 -2.334912,-1.97396 -3.500023,-4.338526 -3.5,-7.09375 -2.3e-5,-2.755224 1.165088,-5.098417 3.5,-7.03125 2.334857,-1.932742 5.171513,-2.90625 8.5,-2.90625 z"
       transform="translate(27.610648,932.97131)"
       id="path8374"
       inkscape:connector-curvature="0" />
    <g
       transform="scale(1.099112,0.90982539)"
       style="font-size:38.56955719px;font-style:normal;font-weight:normal;line-height:125%;letter-spacing:0px;word-spacing:0px;fill:#ffffff;fill-opacity:1;stroke:none;font-family:Sans"
       id="text2985" />
  </g>
</svg>
