<?xml version="1.0" encoding="UTF-8" standalone="no"?>
<!-- Created with Inkscape (http://www.inkscape.org/) -->

<svg
   xmlns:dc="http://purl.org/dc/elements/1.1/"
   xmlns:cc="http://creativecommons.org/ns#"
   xmlns:rdf="http://www.w3.org/1999/02/22-rdf-syntax-ns#"
   xmlns:svg="http://www.w3.org/2000/svg"
   xmlns="http://www.w3.org/2000/svg"
   xmlns:sodipodi="http://sodipodi.sourceforge.net/DTD/sodipodi-0.dtd"
   xmlns:inkscape="http://www.inkscape.org/namespaces/inkscape"
   width="99.097313"
   height="128.0004"
   id="svg13674"
   version="1.1"
   inkscape:version="0.48.0 r9654"
   sodipodi:docname="lightbulb.svg"
   inkscape:export-filename="/home/ian/Dropbox/Essays/Ocp/development/icons/lightbulb.png"
   inkscape:export-xdpi="12.656211"
   inkscape:export-ydpi="12.656211">
  <defs
     id="defs13676" />
  <sodipodi:namedview
     id="base"
     pagecolor="#ffffff"
     bordercolor="#666666"
     borderopacity="1.0"
     inkscape:pageopacity="0.0"
     inkscape:pageshadow="2"
     inkscape:zoom="4.0781124"
     inkscape:cx="-30.939986"
     inkscape:cy="81.591548"
     inkscape:document-units="px"
     inkscape:current-layer="layer1"
     showgrid="false"
     fit-margin-top="0"
     fit-margin-left="0"
     fit-margin-right="0"
     fit-margin-bottom="0"
     inkscape:window-width="1388"
     inkscape:window-height="851"
     inkscape:window-x="52"
     inkscape:window-y="24"
     inkscape:window-maximized="1" />
  <metadata
     id="metadata13679">
    <rdf:RDF>
      <cc:Work
         rdf:about="">
        <dc:format>image/svg+xml</dc:format>
        <dc:type
           rdf:resource="http://purl.org/dc/dcmitype/StillImage" />
        <dc:title></dc:title>
      </cc:Work>
    </rdf:RDF>
  </metadata>
  <g
     inkscape:label="Layer 1"
     inkscape:groupmode="layer"
     id="layer1"
     transform="translate(-305.99799,-417.0625)">
    <path
       id="path13615"
       style="fill:#e4dfc8;fill-opacity:1;stroke:#e4dfc8;stroke-width:5.71861266999999973;stroke-linecap:round;stroke-linejoin:round;stroke-miterlimit:4;stroke-opacity:1;stroke-dasharray:none"
       d="m 341.66114,541.95932 26.90896,0.25783 m -29.7458,-10.05759 33.53523,0.25783 m -17.5795,-9.9551 c 19.68017,-0.0457 22.63888,2.07396 19.96862,-9.90225 l -12.34321,-1.16882 c 0,0 9.55556,-45.58999 6.90194,-49.0576 -2.65353,-3.46752 -6.19044,3.22587 -13.74755,3.09513 -7.55703,-0.13075 -9.51524,-6.44882 -12.35446,-3.07675 -2.83922,3.37215 5.06532,48.51963 5.06532,48.51963 l -12.73855,1.4378 c -1.83606,12.01316 -0.43245,10.19711 19.24789,10.15286 z m 17.36849,-19.67221 c 0,0 1.30596,-7.69563 4.63716,-22.46617 3.11899,-13.82865 3.89869,-26.85026 -2.53897,-29.12317 -6.43757,-2.27301 -10.8159,2.80036 -18.6931,2.91766 -7.87702,0.11703 -11.87793,-5.34545 -18.69292,-2.91766 -6.8149,2.4277 -6.39268,12.72794 -3.45591,27.30246 2.5707,12.75638 3.6822,24.29749 3.6822,24.29749 -10.0458,3.62184 -28.42795,-18.43308 -28.21611,-39.26744 0.21211,-20.83426 20.17113,-43.59749 45.95314,-43.59749 25.7821,0 47.61787,19.34499 47.41207,43.59749 -0.20572,24.25259 -20.3689,42.12897 -30.08756,39.25683 z"
       inkscape:connector-curvature="0"
       inkscape:export-filename="/home/ian/Dropbox/Essays/Ocp/development/icons/lightbulb.png"
       inkscape:export-xdpi="90"
       inkscape:export-ydpi="90" />
  </g>
</svg>
