<?xml version="1.0" encoding="UTF-8" standalone="no"?>
<!-- Created with Inkscape (http://www.inkscape.org/) -->

<svg
   xmlns:dc="http://purl.org/dc/elements/1.1/"
   xmlns:cc="http://creativecommons.org/ns#"
   xmlns:rdf="http://www.w3.org/1999/02/22-rdf-syntax-ns#"
   xmlns:svg="http://www.w3.org/2000/svg"
   xmlns="http://www.w3.org/2000/svg"
   xmlns:sodipodi="http://sodipodi.sourceforge.net/DTD/sodipodi-0.dtd"
   xmlns:inkscape="http://www.inkscape.org/namespaces/inkscape"
   width="117.36848"
   height="118.82289"
   id="svg2"
   version="1.1"
   inkscape:version="0.48.0 r9654"
   sodipodi:docname="print.svg"
   inkscape:export-filename="/home/ian/Dropbox/Essays/Ocp/development/icons/print.png"
   inkscape:export-xdpi="18.178316"
   inkscape:export-ydpi="18.178316">
  <defs
     id="defs4" />
  <sodipodi:namedview
     id="base"
     pagecolor="#ffffff"
     bordercolor="#666666"
     borderopacity="1.0"
     inkscape:pageopacity="0.0"
     inkscape:pageshadow="2"
     inkscape:zoom="4.55"
     inkscape:cx="37.370437"
     inkscape:cy="59.34062"
     inkscape:document-units="px"
     inkscape:current-layer="layer1"
     showgrid="false"
     inkscape:window-width="1388"
     inkscape:window-height="851"
     inkscape:window-x="52"
     inkscape:window-y="24"
     inkscape:window-maximized="1"
     fit-margin-top="0"
     fit-margin-left="0"
     fit-margin-right="0"
     fit-margin-bottom="0" />
  <metadata
     id="metadata7">
    <rdf:RDF>
      <cc:Work
         rdf:about="">
        <dc:format>image/svg+xml</dc:format>
        <dc:type
           rdf:resource="http://purl.org/dc/dcmitype/StillImage" />
        <dc:title></dc:title>
      </cc:Work>
    </rdf:RDF>
  </metadata>
  <g
     inkscape:label="Layer 1"
     inkscape:groupmode="layer"
     id="layer1"
     transform="translate(-1.3157359,-932.87991)">
    <rect
       style="opacity:0;fill:#e4dfc8;fill-opacity:1;stroke:#c8c8c8;stroke-width:4.50000000000000000;stroke-linecap:round;stroke-linejoin:round;stroke-miterlimit:4;stroke-opacity:1;stroke-dasharray:none"
       id="rect3753"
       width="105.71429"
       height="68.131866"
       x="6.5934067"
       y="45.714287"
       transform="translate(0,932.36218)"
       ry="4.6536536" />
    <path
       id="rect3769"
       style="fill:#e4dfc8;fill-opacity:1;stroke:none"
       d="m 95.54949,1025.6495 0,22.1576 c 0,2.1582 -1.737542,3.8957 -3.895834,3.8957 l -64.524757,0 c -2.158292,0 -3.895834,-1.7375 -3.895834,-3.8957 l 0,-22.1576 z m -60.62892,-92.76959 51.376313,0 c 2.158293,0 3.895835,1.73754 3.895835,3.89583 l 0,35.06251 c 0,2.15829 -1.737542,3.89583 -3.895835,3.89583 l -51.376313,0 c -2.158293,0 -3.895835,-1.73754 -3.895835,-3.89583 l 0,-35.06251 c 0,-2.15829 1.737542,-3.89583 3.895835,-3.89583 z m -8.051898,34.73112 c -21.4663098,2.48327 -25.5463811,7.15024 -25.5504339,9.14 -0.00563,2.76313 0,52.27417 0,52.27417 0,2.8562 2.30231,5.1585 5.1585563,5.1585 l 12.3597626,-0.2423 c 0,0 0.251799,-0.2832 0.07038,-20.0753 -0.0052,-1.0333 -0.670713,-6.2155 2.595447,-7.9294 3.266161,-1.7139 72.419923,-1.5188 75.993498,0.2423 2.888068,1.4233 2.554448,4.8517 2.594308,7.5163 0.2945,19.6863 0.31387,20.2461 0.31387,20.2461 l 13.12143,0.2423 c 2.85624,0 5.15855,-2.3023 5.15855,-5.1585 0,0 -0.0405,-49.46219 0,-52.27417 0.0288,-1.9974 -3.43905,-6.61547 -23.85399,-9.10537 l 0,8.10135 c 0,2.15829 -1.753901,3.87758 -3.912193,3.87758 l -60.136996,0 c -2.158292,0 -3.912193,-1.71929 -3.912193,-3.87758 z"
       inkscape:connector-curvature="0"
       inkscape:export-filename="/home/ian/Dropbox/Web_Pages/ocp/sites/all/modules/bookDisplay/images/print.png"
       inkscape:export-xdpi="18.178316"
       inkscape:export-ydpi="18.178316" />
  </g>
</svg>
