<?xml version="1.0" encoding="UTF-8" standalone="no"?>
<!-- Created with Inkscape (http://www.inkscape.org/) -->

<svg
   xmlns:dc="http://purl.org/dc/elements/1.1/"
   xmlns:cc="http://creativecommons.org/ns#"
   xmlns:rdf="http://www.w3.org/1999/02/22-rdf-syntax-ns#"
   xmlns:svg="http://www.w3.org/2000/svg"
   xmlns="http://www.w3.org/2000/svg"
   xmlns:sodipodi="http://sodipodi.sourceforge.net/DTD/sodipodi-0.dtd"
   xmlns:inkscape="http://www.inkscape.org/namespaces/inkscape"
   width="36"
   height="36"
   id="svg2"
   version="1.1"
   inkscape:version="0.48.3.1 r9886"
   sodipodi:docname="copyright.svg"
   inkscape:export-filename="/home/ian/web/web2py/applications/grammateus3/static/plugin_framework/images/ocp/copyright.png"
   inkscape:export-xdpi="91.590103"
   inkscape:export-ydpi="91.590103">
  <defs
     id="defs4" />
  <sodipodi:namedview
     id="base"
     pagecolor="#ffffff"
     bordercolor="#666666"
     borderopacity="1.0"
     inkscape:pageopacity="0.0"
     inkscape:pageshadow="2"
     inkscape:zoom="22.133333"
     inkscape:cx="18.557205"
     inkscape:cy="17.583734"
     inkscape:document-units="px"
     inkscape:current-layer="layer1"
     showgrid="false"
     fit-margin-top="0"
     fit-margin-left="0"
     fit-margin-right="0"
     fit-margin-bottom="0"
     inkscape:window-width="1615"
     inkscape:window-height="1026"
     inkscape:window-x="65"
     inkscape:window-y="24"
     inkscape:window-maximized="1" />
  <metadata
     id="metadata7">
    <rdf:RDF>
      <cc:Work
         rdf:about="">
        <dc:format>image/svg+xml</dc:format>
        <dc:type
           rdf:resource="http://purl.org/dc/dcmitype/StillImage" />
        <dc:title></dc:title>
      </cc:Work>
    </rdf:RDF>
  </metadata>
  <g
     inkscape:label="Layer 1"
     inkscape:groupmode="layer"
     id="layer1"
     transform="translate(-2.579398,-1015.1901)">
    <path
       style="fill:#e4dfc8;fill-opacity:1;stroke:#f5f3eb;stroke-width:0.15314302;stroke-opacity:1"
       d="m 20.552535,1023.8305 c -4.842129,0 -8.776281,3.9814 -8.776281,8.91 0,4.9285 3.934152,8.9368 8.776281,8.9368 4.842129,0 8.77628,-4.0083 8.77628,-8.9368 0,-4.9286 -3.934151,-8.91 -8.77628,-8.91 z m -0.107028,2.8897 c 2.223638,0 4.159701,1.2917 5.137335,3.1841 l -1.471633,0.8562 c -0.68686,-1.3526 -2.091978,-2.2743 -3.692459,-2.2743 -2.283096,0 -4.120571,1.8803 -4.120571,4.2009 0,2.3201 1.837475,4.2008 4.120571,4.2008 1.568363,0 2.938489,-0.8855 3.638946,-2.1941 l 1.498389,0.8562 c -0.982132,1.8784 -2.897804,3.1573 -5.110578,3.1573 -3.209288,0 -5.806259,-2.6823 -5.806259,-5.9935 0,-3.3113 2.596971,-5.9936 5.806259,-5.9936 z"
       id="path3780"
       inkscape:connector-curvature="0" />
    <g
       transform="scale(1.099112,0.90982539)"
       style="font-size:38.56955719px;font-style:normal;font-weight:normal;line-height:125%;letter-spacing:0px;word-spacing:0px;fill:#ffffff;fill-opacity:1;stroke:none;font-family:Sans"
       id="text2985" />
  </g>
</svg>
